<svg id="Layer_1" data-name="Layer 1" xmlns="http://www.w3.org/2000/svg" viewBox="0 0 1948.18 338.95"><defs><style>.cls-1{fill:#06428a;}.cls-2{fill:#06428b;}.cls-3{fill:#0298d1;}.cls-4{fill:#0198d1;}.cls-5{fill:#07438b;}.cls-6{fill:#07428b;}.cls-7{fill:#fefefe;}</style></defs><title>logo</title><path class="cls-1" d="M2794.29,3003.68a101.29,101.29,0,0,1-101.47-101.8c.18-55.66,45.52-101,101.39-101.35s102,45.8,102,101.72A101.32,101.32,0,0,1,2794.29,3003.68Z" transform="translate(-1860.57 -2665.63)"/><path class="cls-1" d="M3296.54,2902.68c0-31.16.15-62.31-.13-93.47,0-5.73,1.39-8.4,7.38-8.3,10.49.19,21,.24,31.47,0,5.89-.14,7.74,2.21,7.66,8-.27,21,.08,42-.23,62.93-.09,5.71,1.27,7.72,7.36,7.59,19.48-.39,39-.33,58.46,0,5.25.09,6.46-1.66,6.4-6.61-.25-21,.13-42-.24-62.93-.12-6.84,2.54-9.07,8.91-8.93,10.19.21,20.39.18,30.58,0,4.91-.08,6.92,1.67,6.92,6.81q0,94.4.25,188.79c0,5.63-2.23,8.09-8.09,7.91-9.88-.3-19.79-.32-29.67,0-6.53.21-9-2.09-8.89-8.86.35-21-.07-42,.25-62.93.09-5.51-1.38-7.14-7-7-19.18.35-38.38.43-57.56,0-6.7-.16-7.81,2.31-7.71,8.26.34,20.38-.22,40.77.32,61.13.19,7.45-2.86,9.47-9.35,9.39-9.59-.12-19.2-.29-28.78.07-6.22.24-8.44-2-8.4-8.3.23-31.15.11-62.3.11-93.45Z" transform="translate(-1860.57 -2665.63)"/><path class="cls-1" d="M2512.85,2902.65c0-30.88.18-61.76-.13-92.64-.07-7,1.81-9.67,9.16-9.21a246.73,246.73,0,0,0,28.78-.09c6.62-.36,9.17,1.81,9.08,8.57-.27,20.39.28,40.79-.3,61.16-.21,7.44,2.31,8.83,9.07,8.68,18.88-.43,37.79-.32,56.68,0,5.14.08,6.62-1.45,6.55-6.56-.26-21.28.1-42.57-.24-63.85-.09-6,1.82-8,7.66-7.8,9.89.32,19.83.57,29.69-.06,7.66-.49,8.86,3,8.83,9.52-.2,48.27-.1,96.54-.1,144.81,0,13.79-.17,27.59.07,41.37.09,5.36-1.65,7.47-7.24,7.28-10.49-.37-21-.43-31.48,0-6.27.27-7.46-2.4-7.4-8,.25-21-.16-42,.26-63,.13-6.43-1.86-8-8-7.84-18.89.4-37.8.36-56.69,0-5.72-.1-7.69,1.29-7.58,7.37.39,21,0,42,.25,63,.08,6.13-1.75,8.69-8.2,8.41-9.88-.42-19.81-.46-29.69,0-6.59.32-8.92-1.64-8.84-8.53.32-30.87.14-61.75.14-92.63Z" transform="translate(-1860.57 -2665.63)"/><path class="cls-1" d="M3132,2902c0-30.55.26-61.11-.17-91.66-.12-8.19,2.86-10.21,10.47-10.06,26.05.52,52.12.53,78.18.67,38.53.2,68.3,30.13,68.1,68.53-.21,37.52-30.47,67.31-68.43,67.35-11.39,0-22.81.5-34.16-.18-7.14-.43-8.35,2.21-8.19,8.6.43,16.76-.06,33.55.25,50.32.12,6.26-2,8.5-8.31,8.23-9.87-.43-19.79-.42-29.66,0-6.36.27-8.25-2.08-8.19-8.32C3132.09,2964.32,3132,2933.16,3132,2902Z" transform="translate(-1860.57 -2665.63)"/><path class="cls-1" d="M2016.08,2800.85c7.24-7.11,14.53-14.16,21.71-21.32q55-54.95,110-109.94c2.87-2.86,4.84-6.46,9.78-1.48q65.19,65.74,130.85,131c.8.8,1.87,1.53,1.07,3.71-30.46,0-61.21,0-92,.05-3.89,0-5.86-2.58-8.15-4.86-10.61-10.57-21.3-21.07-31.72-31.83-3.13-3.24-4.84-3.66-8.25,0-10.25,10.91-21,21.32-31.59,31.95-2.33,2.35-4.45,4.73-8.25,4.72q-46.18-.09-92.39,0Z" transform="translate(-1860.57 -2665.63)"/><path class="cls-1" d="M1860.57,2953.7c2.3-1.3,5-2.17,6.83-4q63.11-62.83,125.92-126c4.59-4.63,6.82-5.05,11.69-.15,42.25,42.56,84.83,84.79,127.31,127.12,1.44,1.44,2.77,3,5.45,5.9h-22.53c-21.6,0-43.2-.38-64.78.2-7.63.2-12.82-2.17-17.86-7.62-9.16-9.9-19.12-19-28.45-28.79-3.44-3.59-5.45-4-9.13,0-10,10.74-20.54,21-31,31.37-2.27,2.26-4.3,4.9-8.17,4.89q-46.59-.11-93.2,0Z" transform="translate(-1860.57 -2665.63)"/><path class="cls-1" d="M2170.86,2956.61c-.15-3,1.78-3.74,2.94-4.91q64.18-64.26,128.45-128.47c2.75-2.76,4.64-5.86,9.13-1.34q66.24,66.65,132.8,132.87c-1.24,3.18-3.71,1.78-5.45,1.78-28.18.11-56.37,0-84.55.2-4.67,0-7.78-1.5-10.9-4.71-9.81-10.11-20.24-19.64-29.69-30.07-5-5.58-7.88-4.53-12.42.32-9.62,10.28-19.78,20-29.79,30-2.05,2-3.74,4.44-7.35,4.43C2233,2956.56,2201.93,2956.61,2170.86,2956.61Z" transform="translate(-1860.57 -2665.63)"/><path class="cls-1" d="M2977.91,2890.61c-10.13,20.54-19.87,40.33-29.63,60.11-7.67,15.55-15.53,31-22.92,46.7-2.24,4.76-5,6.59-10.29,6.38-9.58-.4-19.18-.06-28.78-.13-9-.08-10-1.69-5.86-10.16q17.09-35.09,34.35-70.07,28.92-58.74,58-117.43c1.1-2.22,1.27-5.6,4.82-5.77,4-.2,4.65,3.24,5.91,5.82q46.09,93.77,92.09,187.59c4.42,9,3.76,10-6.38,10-7.5,0-15.1-.79-22.47.2-10.12,1.36-14.71-3.15-18.81-11.85-15-31.9-30.9-63.42-46.47-95.08C2980.52,2895.1,2979.43,2893.33,2977.91,2890.61Z" transform="translate(-1860.57 -2665.63)"/><path class="cls-2" d="M3726.38,2801c24.87,0,49.74.19,74.6-.16,6-.08,7.94,1.78,7.76,7.63-.34,10.47-.31,21,0,31.44.16,5.6-2.07,7.22-7.43,7.12-14.68-.28-29.37.25-44-.26-6.54-.22-8.54,1.31-8.48,8.24.35,46.11,0,92.23.37,138.34.07,8.25-2.06,11.25-10.5,10.54a161.71,161.71,0,0,0-26,0c-8.29.65-10-2.84-10-10.38.27-46.72,0-93.44.33-140.16,0-5.23-.94-6.63-6.1-6.52-15.27.3-30.56-.13-45.83.22-5.95.13-7.94-1.94-7.75-7.77.34-10.17.43-20.37,0-30.54-.29-6.64,2.51-7.93,8.53-7.86C3676.64,2801.13,3701.51,2801,3726.38,2801Z" transform="translate(-1860.57 -2665.63)"/><path class="cls-1" d="M3579.15,2890.55c-15.74,31.88-31.81,61.67-45.17,92.63-7.14,16.56-16.37,24-34.09,20.61-3.77-.72-7.78-.09-11.68-.11-10.26-.06-10.93-1-6.57-9.92q14.7-30.26,29.6-60.4,30.89-62.79,61.85-125.54c1.4-2.84,2.08-6.87,6-7.17,4.48-.34,4.51,4.21,5.83,6.88q45.6,92.55,91,185.19c5,10.27,4.67,10.93-6.65,11-8.1,0-16.24-.56-24.28.16-7.84.71-11.55-2.52-14.85-9.39C3613.74,2960.22,3596.75,2926.26,3579.15,2890.55Z" transform="translate(-1860.57 -2665.63)"/><path class="cls-3" d="M2014.61,2815.28h20.05c23.06,0,46.11.11,69.16-.08,6.07,0,10.75,1.56,15,6.15,8.79,9.37,18.15,18.21,27.27,27.25-1.82,3.21-4.49,1.8-6.56,1.81-28.14.12-56.28.09-84.42.11-2.33,0-4.75.72-6.76-1.31C2037.75,2838.47,2027.06,2827.77,2014.61,2815.28Z" transform="translate(-1860.57 -2665.63)"/><path class="cls-3" d="M2159.2,2850.48c12-11.93,22.39-22.17,32.66-32.54a8.25,8.25,0,0,1,6.32-2.67q44,.09,88,.14c1.12,0,2.23.61,5.54,1.57-11.77,11.46-22.53,22.05-33.5,32.44-1.07,1-3.38,1-5.12,1C2222.59,2850.49,2192.11,2850.48,2159.2,2850.48Z" transform="translate(-1860.57 -2665.63)"/><path class="cls-3" d="M2313.87,3003.29c11.45-11.28,21.26-20.93,31-30.61,1.72-1.71,3.36-3.21,6.09-3.21q46.18.09,92.25,0c-10.58,11.35-21,22.58-31.51,33.66-.86.91-2.78,1.17-4.2,1.16C2377.08,3004.19,2346.6,3005.17,2313.87,3003.29Z" transform="translate(-1860.57 -2665.63)"/><path class="cls-3" d="M2301.38,3003.28c-33.37,1.78-64.12,1.31-94.87.39-1.78-.05-3.57,0-5-1.43-10.21-10.31-20.45-20.6-32.8-33,10.65,0,18.55,0,26.45,0q32.74.12,65.5.26c3.3,0,6.34,0,9,2.71C2279.57,2982.12,2289.66,2991.82,2301.38,3003.28Z" transform="translate(-1860.57 -2665.63)"/><path class="cls-4" d="M1863.91,2969.51h92.15a6.43,6.43,0,0,1,4.87,1.83c10.24,10.31,20.49,20.61,31.64,31.82-20.77,1.5-40.1,1.45-59.43,1.13-8.36-.15-16.84-1.33-25.07-.35-9,1.08-15.26-1.61-21.17-8.23-7.53-8.42-16-16-24-24Z" transform="translate(-1860.57 -2665.63)"/><path class="cls-4" d="M2136.28,2969.49c-4.3,8-11.22,11.77-15.54,17.58-9.95,13.36-22.51,17.89-39.08,17.47-24.4-.61-48.82-.47-76.25-1.24,12.17-11.75,22.62-21.8,33-31.92,1.95-1.9,4.24-1.89,6.65-1.89C2075,2969.5,2104.9,2969.49,2136.28,2969.49Z" transform="translate(-1860.57 -2665.63)"/><path class="cls-5" d="M2883.08,2800.94c8-3.08,11.05,2.92,14.13,9.67,5.06,11.13,10.49,22.1,16.05,33,2.94,5.74,2.64,8.66-4.82,9-14.32.65-14.64.7-21-12.3-4.32-8.83-8.61-17.69-12.94-26.53C2868.62,2801.79,2869.07,2801,2883.08,2800.94Z" transform="translate(-1860.57 -2665.63)"/><path class="cls-6" d="M3524.85,2852.58c-13.72,0-14-.47-8.36-12,5.4-11,10.78-22,16.25-32.91,2.87-5.74,17.63-9.61,22.48-5.87,2.59,2,2.13,4.7.88,7.28-6.42,13.14-13,26.2-19.25,39.41C3534,2854.54,3528.68,2851.8,3524.85,2852.58Z" transform="translate(-1860.57 -2665.63)"/><path class="cls-7" d="M2739.32,2901.9c0-30.27,25.37-55.3,55.64-55,29.73.32,54.81,25.65,54.72,55.27a55.18,55.18,0,1,1-110.36-.28Z" transform="translate(-1860.57 -2665.63)"/><path class="cls-7" d="M3202.69,2846.6c6.27,0,12.56-.25,18.82.06,10.71.53,19.52,9.23,20.67,20,1.12,10.43-5.23,21-15.38,23.33-15,3.51-30.33,1-45.51,1.48-3.46.1-3.36-2.71-3.37-5.11,0-11.64.06-23.29-.05-34.93,0-3.69.93-5.28,5.12-5,6.54.45,13.13.12,19.7.12Z" transform="translate(-1860.57 -2665.63)"/></svg>